<?xml version="1.0" standalone="no"?>
<!DOCTYPE svg PUBLIC "-//W3C//DTD SVG 20010904//EN" "http://www.w3.org/TR/2001/REC-SVG-20010904/DTD/svg10.dtd">
<svg xmlns="http://www.w3.org/2000/svg" version="1.0" width="462.000000pt" height="462.000000pt" viewBox="0 0 462.000000 462.000000" preserveAspectRatio="xMidYMid meet">
  <metadata>
Created by potrace 1.16, written by Peter Selinger 2001-2019
</metadata>
  <defs>
    <!-- Flame gradient -->
    <radialGradient id="flameGradient" cx="50%" cy="70%" r="60%">
      <stop offset="0%" style="stop-color:#FF7E00;stop-opacity:1" />
      <stop offset="70%" style="stop-color:#FF4E00;stop-opacity:1" />
      <stop offset="100%" style="stop-color:#FF4200;stop-opacity:1" />
    </radialGradient>
  </defs>

  <!-- Flame shape with gradient -->
  <g transform="translate(-10.000000,462.000000) scale(0.100000,-0.100000)">
    <path d="M2150 4415 c-14 -17 -11 -40 20 -170 30 -126 31 -323 2 -453 -26 -114 -88 -270 -149 -377 -133 -233 -381 -526 -456 -540 -86 -16 -112 29 -129 227 -6 73 -15 139 -21 146 -5 6 -24 12 -41 12 -47 0 -213 -166 -339 -340 -279 -385 -406 -831 -356 -1245 73 -600 500 -1114 1103 -1324 100 -35 326 -84 349 -75 18 6 23 49 37 311 17 290 17 530 2 582 -11 34 -40 71 -130 165 -159 165 -203 256 -203 425 0 81 133 927 151 961 22 41 86 36 96 -7 4 -14 -4 -211 -17 -438 -25 -448 -25 -450 28 -474 37 -17 69 -13 99 12 27 24 27 24 40 358 7 184 14 382 16 441 4 118 17 148 68 148 59 0 59 -2 75 -426 19 -480 20 -490 50 -520 33 -33 84 -32 119 2 32 32 32 46 12 384 -8 129 -18 298 -22 376 -6 140 -6 141 17 158 30 21 52 20 72 -2 22 -25 167 -877 167 -982 -1 -163 -42 -252 -190 -404 -59 -61 -116 -127 -126 -146 -17 -31 -19 -58 -19 -250 0 -256 23 -658 39 -667 27 -17 187 12 339 62 274 88 490 226 695 439 160 168 279 363 355 582 63 181 72 242 72 499 0 201 -3 243 -23 333 -46 209 -118 394 -223 570 -63 106 -86 132 -115 132 -32 0 -39 -14 -67 -128 -29 -113 -80 -227 -113 -249 -17 -11 -23 -11 -38 0 -14 10 -19 37 -27 127 -41 499 -197 892 -495 1251 -133 160 -355 345 -561 468 -104 62 -141 73 -163 46z" fill="url(#flameGradient)" stroke="none" />
  </g>


</svg>
